PathFileType	4	(X/Y/Z)	Patient4_TMGait_0pt7_02_right_02.trc.trc
DataRate	CameraRate	NumFrames	NumMarkers	Units	OrigDataRate	OrigDataStartFrame	OrigNumFrames
82.840236686391	82.840236686391	4	33	mm	82.840236686391	18	       141
Frame#	Time	Sacral			L.Shoulder			Chest			R.Shoulder			Neck			R.ASIS			L.ASIS			R.Thigh.Superior			R.Thigh.Lateral			R.Thigh.Inferior			R.Patella			L.Thigh.Superior			L.Thigh.Lateral			L.Thigh.Inferior			L.Patella			L.Shank.Superior			L.Shank.Lateral			L.Shank.Inferior			R.Shank.Superior			R.Shank.Lateral			R.Shank.Inferior			R.Heel			R.Midfoot.Superior			R.Midfoot.Lateral			R.Toe			L.Heel			L.Midfoot.Lateral			L.Midfoot.Superior			L.Toe			L.Elbow			L.Wrist			R.Elbow			R.Wrist			
		X1	Y1	Z1	X2	Y2	Z2	X3	Y3	Z3	X4	Y4	Z4	X5	Y5	Z5	X6	Y6	Z6	X7	Y7	Z7	X8	Y8	Z8	X9	Y9	Z9	X10	Y10	Z10	X11	Y11	Z11	X12	Y12	Z12	X13	Y13	Z13	X14	Y14	Z14	X15	Y15	Z15	X16	Y16	Z16	X17	Y17	Z17	X18	Y18	Z18	X19	Y19	Z19	X20	Y20	Z20	X21	Y21	Z21	X22	Y22	Z22	X23	Y23	Z23	X24	Y24	Z24	X25	Y25	Z25	X26	Y26	Z26	X27	Y27	Z27	X28	Y28	Z28	X29	Y29	Z29	X30	Y30	Z30	X31	Y31	Z31	X32	Y32	Z32	X33	Y33	Z33	

18	1.425214285714	849.678745705101	1012.283038820929	413.855598216244	1090.785904219776	1426.588560862517	250.984652046887	1164.225732610011	1349.761110513202	425.295780166141	1062.343258777725	1436.066403788510	582.968141347348	1072.835936431821	1487.253984391391	403.071968203797	1054.717589560338	940.852157697735	562.081973873692	1079.942266435401	955.262961944474	285.996679836448	1136.445479705254	777.220330771825	541.736429587634	1094.107867949930	655.586594561635	615.995338818154	1189.802811024548	620.389707594416	542.839855175753	1226.680947726306	537.260915930388	565.184115758001	1082.131090972320	731.788671146119	321.164844656250	977.030078938343	635.184927461626	246.070404750605	1029.679034895846	543.197310012708	318.664640903770	1014.996832111154	477.511458045733	327.429287438279	984.503927962467	410.990630907906	315.777516028614	891.024947591400	304.197470172198	256.843432998129	922.546043693375	190.367046429634	334.543637525102	1208.732900612991	448.695347042581	575.641537242582	1151.762224478293	337.483024175999	640.563851075926	1221.848076046420	249.013483953981	594.446065302290	1129.224345064861	61.071478366516	569.455871559451	1291.567742046960	136.728943531984	611.673024891631	1213.344795533895	58.528676511367	642.163954793903	1415.777276191457	100.489707853951	637.081317499096	781.347628992327	39.741716805929	367.317429781465	860.006110110059	35.553348426885	291.815582525318	941.983301087344	95.909364231206	323.464241021799	1071.825410510728	41.023689329165	303.875348713508	1110.900525569865	1098.647139787947	95.463463332538	1361.762939128185	1086.095066758869	129.261431893645	915.667621433627	1130.884105194476	716.157357700492	886.962813569861	874.378936468391	760.784242161068	
19	1.437285714286	851.357298363510	1010.038454653083	416.164813161475	1089.892429195517	1425.416370952544	253.147294449179	1164.160516425792	1348.767987246453	427.077240395198	1062.347738799924	1434.754761650493	584.992280966176	1072.207889758274	1485.753852793931	405.116152914531	1056.774493332137	938.361922416152	563.630869238778	1081.152219232885	954.207949646815	287.431399843476	1135.727251245575	771.723510232261	542.995774822170	1091.376882565541	650.720536505704	616.951569290870	1186.124460458521	614.355224930996	543.036868358028	1222.082538946294	532.911155307141	564.682834040460	1080.349397763376	729.828591844615	321.396101659502	973.074417290488	634.832201040665	246.357863633665	1024.591918538023	541.908098305767	318.235086379099	1009.327432398611	476.415069126485	326.767089874248	978.175681038193	410.386907502272	315.401008874692	883.575069576876	304.325596627458	256.673684388834	914.651574698300	190.147530871835	334.199828167076	1206.804793761244	444.792306054820	575.388640920187	1152.943021553185	331.595874748778	639.670341074263	1226.254469475443	245.447681816069	593.484476605962	1139.663176845785	54.770822838822	567.652452966657	1299.959987920902	134.673305891271	610.023446380135	1223.793629138952	54.503890768835	640.470935657330	1425.315777576781	101.969375482517	635.644183239698	772.852670547871	39.791247132603	367.258857044159	851.498699210491	35.543617518100	291.793045826086	933.484132935800	95.851855839841	323.315865719369	1063.303894641194	40.856169923109	303.806276004584	1113.874804067628	1098.299516303350	97.063636898968	1364.192148840558	1096.388046315633	133.743687897010	908.412100951134	1134.141412107640	717.639631651654	873.278257014149	878.391345659526	760.973238409009	
20	1.449357142857	853.184057338490	1007.580482016755	418.855360462251	1088.704856451703	1424.116737846054	255.413880314778	1164.056323117055	1347.781443904043	428.921035941569	1062.340737886259	1433.380333357559	587.154650832836	1071.401662584702	1484.147974268684	407.284779064062	1059.193873494027	935.738046387872	565.286401125369	1082.510617383449	953.032088847634	289.074694861309	1135.674014090942	766.312593114196	544.344780726512	1089.195180725402	645.842868218125	617.742996207928	1183.113101084119	608.484535033756	543.202907492469	1217.964394838479	528.320580602976	563.998587394841	1078.905776906414	727.807176259445	321.738538237356	969.500567573988	634.402346330004	246.903142180810	1020.004797532956	540.544546771704	318.061983622645	1004.229973207606	475.155134659245	326.365006007715	972.270484572442	409.636990264614	315.247398453860	876.387925590986	304.484839487853	256.691739088505	906.883871584179	189.869786858607	333.942070037278	1204.700339655908	440.514299269402	574.833694933088	1152.971543317312	325.916480365303	638.303055594673	1228.576867633480	241.590503260357	592.012140217968	1146.094454803865	49.784867680600	565.344273495625	1305.095678491637	131.748687058284	607.663078247201	1230.126378787269	50.853832502306	638.250544517251	1431.017530164332	101.009678371758	633.452800693798	764.349411690374	39.850180272816	367.184280645377	843.003859151684	35.536273967903	291.767789373860	924.995701761079	95.800772095716	323.180839863342	1054.801658795113	40.681166495721	303.720869066234	1116.385486469916	1097.657513546575	98.995895808446	1365.794121269724	1105.655706411972	138.319348170625	901.856189230035	1137.133499330103	719.101477873661	861.007034323897	882.021887021791	760.789714263757	
21	1.461428571429	855.107632205924	1004.991677749500	421.900196583112	1087.299251098439	1422.721408584138	257.786523028262	1163.937132428295	1346.817004274349	430.853887665987	1062.335375871916	1431.967526594657	589.469178195512	1070.473287828005	1482.485507895912	409.593132660095	1061.904954538323	933.074183050558	567.049882989680	1083.970155197191	951.761641195085	290.941146038112	1136.337775722894	761.190815396011	545.792945934334	1087.623473831340	641.116325311820	618.334646809204	1180.891939844729	603.008638619195	543.355589980713	1214.504093850497	523.698980239063	563.117426475251	1077.852527710713	725.770685674476	322.223099118352	966.398719255544	633.894218390068	247.746128318480	1016.038317513718	539.113943548868	318.185050234150	999.814425644783	473.717382149593	326.274895221191	966.892812231802	408.722164318211	315.358408598025	869.560461411771	304.688174156786	256.925471680543	899.289774930388	189.538753459899	333.785502147896	1202.616847396322	436.030206591339	573.980651363686	1152.120001023574	320.558884594461	636.600339154547	1229.059556053090	237.489624536167	590.116591831868	1148.675969059750	46.021657164403	562.803405084445	1307.247670398396	127.983561737880	604.705959850034	1232.606538643595	47.558960604458	635.728668180411	1433.261428726818	97.639239939697	630.561737173123	755.839231960998	39.964380339963	367.084394077524	834.527215993479	35.543555045090	291.737513501332	916.541152296146	95.763122833393	323.054689187958	1046.329128723872	40.497735845790	303.620507384448	1118.372441079455	1096.720590714281	101.266464946338	1366.623424581619	1113.793995300118	142.936815054277	896.085774692668	1139.738572950097	720.522141725497	850.157002569354	885.148211575194	760.305279268648	
